<svg fill="#ffffff" version="1.2" xmlns="http://www.w3.org/2000/svg" xmlns:xlink="http://www.w3.org/1999/xlink" overflow="visible" preserveAspectRatio="none" viewBox="0 0 20 20" width="20" height="20"><g transform="translate(0, 0)"><defs><path id="path-1597395682541310" d="M18.823611111111113 0 C18.823611111111113 0 10 8.823611111111111 10 8.823611111111111 C10 8.823611111111111 1.1766666666666659 0 1.1766666666666659 0 C1.1766666666666659 0 0 1.1763888888888887 0 1.1763888888888887 C0 1.1763888888888887 8.823611111111111 10 8.823611111111111 10 C8.823611111111111 10 0 18.823611111111113 0 18.823611111111113 C0 18.823611111111113 1.1766666666666659 20 1.1766666666666659 20 C1.1766666666666659 20 10 11.176388888888889 10 11.176388888888889 C10 11.176388888888889 18.823611111111113 20 18.823611111111113 20 C18.823611111111113 20 20 18.823611111111113 20 18.823611111111113 C20 18.823611111111113 11.176666666666668 10 11.176666666666668 10 C11.176666666666668 10 20 1.1763888888888887 20 1.1763888888888887 C20 1.1763888888888887 18.823611111111113 0 18.823611111111113 0 Z" vector-effect="non-scaling-stroke"/></defs><g transform="translate(0, 0)"><path d="M18.823611111111113 0 C18.823611111111113 0 10 8.823611111111111 10 8.823611111111111 C10 8.823611111111111 1.1766666666666659 0 1.1766666666666659 0 C1.1766666666666659 0 0 1.1763888888888887 0 1.1763888888888887 C0 1.1763888888888887 8.823611111111111 10 8.823611111111111 10 C8.823611111111111 10 0 18.823611111111113 0 18.823611111111113 C0 18.823611111111113 1.1766666666666659 20 1.1766666666666659 20 C1.1766666666666659 20 10 11.176388888888889 10 11.176388888888889 C10 11.176388888888889 18.823611111111113 20 18.823611111111113 20 C18.823611111111113 20 20 18.823611111111113 20 18.823611111111113 C20 18.823611111111113 11.176666666666668 10 11.176666666666668 10 C11.176666666666668 10 20 1.1763888888888887 20 1.1763888888888887 C20 1.1763888888888887 18.823611111111113 0 18.823611111111113 0 Z" style="stroke: rgb(140, 140, 140); stroke-width: 0; stroke-linecap: butt; stroke-linejoin: miter;" vector-effect="non-scaling-stroke"/></g></g></svg>