<svg fill="#2d2d2d" xmlns="http://www.w3.org/2000/svg" width="26" height="26" viewBox="0 0 26 26">
    <path d="M10.351,19.949c-5.211,0-9.554-4.344-9.554-9.554c0-5.211,4.343-9.554,9.554-9.554 c5.209,0,9.553,4.343,9.553,9.554C19.904,15.605,15.561,19.949,10.351,19.949z M10.351,2.579c-4.343,0-7.817,3.473-7.817,7.816 c0,4.343,3.474,7.817,7.817,7.817c4.342,0,7.817-3.475,7.817-7.817C18.168,6.052,14.693,2.579,10.351,2.579z"></path>
    <path d="M17.298,16.127l7.643,7.643c0.351,0.35,0.351,0.871,0,1.215c-0.173,0.174-0.521,0.174-0.694,0.174 c-0.172,0-0.521,0-0.693-0.174l-7.643-7.643L17.298,16.127z"></path>
</svg>